<svg width="48" height="48" viewBox="0 0 48 48" fill="none" xmlns="http://www.w3.org/2000/svg">
<path fill-rule="evenodd" clip-rule="evenodd" d="M48 24C48 37.2548 37.2548 48 24 48C10.7452 48 0 37.2548 0 24C0 10.7452 10.7452 0 24 0C37.2548 0 48 10.7452 48 24ZM30.0926 8.90039H16.9474C12.4834 8.90039 8.85156 12.5324 8.85156 16.9964V30.1416C8.85156 34.6058 12.4834 38.2376 16.9474 38.2376H30.0926C34.557 38.2376 38.1888 34.6057 38.1888 30.1416V16.9964C38.189 12.5324 34.557 8.90039 30.0926 8.90039ZM35.586 30.1416C35.586 33.1706 33.1217 35.6347 30.0928 35.6347H16.9474C13.9186 35.6349 11.4545 33.1706 11.4545 30.1416V16.9964C11.4545 13.9676 13.9186 11.5033 16.9474 11.5033H30.0926C33.1216 11.5033 35.5859 13.9676 35.5859 16.9964V30.1416H35.586ZM15.9607 23.5694C15.9607 19.401 19.3518 16.0099 23.5202 16.0099C27.6885 16.0099 31.0796 19.401 31.0796 23.5694C31.0796 27.7375 27.6885 31.1285 23.5202 31.1285C19.3518 31.1285 15.9607 27.7375 15.9607 23.5694ZM18.5637 23.5692C18.5637 26.3021 20.7873 28.5254 23.5202 28.5254C26.2531 28.5254 28.4767 26.3021 28.4767 23.5692C28.4767 20.8361 26.2533 18.6127 23.5202 18.6127C20.7871 18.6127 18.5637 20.8361 18.5637 23.5692ZM30.0484 14.3615C30.4025 14.0058 30.8952 13.8028 31.3967 13.8028C31.8999 13.8028 32.3927 14.0058 32.7467 14.3615C33.1025 14.7155 33.3055 15.2084 33.3055 15.7116C33.3055 16.2131 33.1025 16.7059 32.7467 17.0617C32.391 17.4157 31.8999 17.6204 31.3967 17.6204C30.8952 17.6204 30.4024 17.4157 30.0484 17.0617C29.6926 16.7059 29.4879 16.2133 29.4879 15.7116C29.4879 15.2084 29.6924 14.7155 30.0484 14.3615Z" fill="white"/>
</svg>
