<svg width="48" height="48" viewBox="0 0 48 48" fill="none" xmlns="http://www.w3.org/2000/svg">
<path fill-rule="evenodd" clip-rule="evenodd" d="M48 24C48 37.2548 37.2548 48 24 48C10.7452 48 0 37.2548 0 24C0 10.7452 10.7452 0 24 0C37.2548 0 48 10.7452 48 24ZM27.5598 8L31.3975 8.00645C31.7303 8.0071 32 8.28993 32 8.63856V13.371C32 13.7199 31.73 14.0031 31.3969 14.0031L28.8116 14.004C27.0293 14.004 26.7033 14.7316 26.7033 16.1648V19.1467H31.2165C31.3766 19.1467 31.5305 19.2134 31.6435 19.3321C31.7565 19.4508 31.8202 19.6114 31.8202 19.7791L31.8184 24.8756C31.8184 25.2249 31.5483 25.5077 31.2149 25.5077H26.7033V38.3679C26.7033 38.7168 26.4333 39 26.0999 39H21.0655C20.7321 39 20.462 38.7172 20.462 38.3679V25.5077H16.6034C16.2703 25.5077 16 25.2249 16 24.8756V19.7791C16 19.4298 16.27 19.1467 16.6034 19.1467H20.462V15.6291C20.462 10.9944 23.2483 8 27.5598 8Z" fill="white"/>
</svg>
