<svg width="48" height="48" viewBox="0 0 48 48" fill="none" xmlns="http://www.w3.org/2000/svg">
<path fill-rule="evenodd" clip-rule="evenodd" d="M48 24C48 37.2548 37.2548 48 24 48C10.7452 48 0 37.2548 0 24C0 10.7452 10.7452 0 24 0C37.2548 0 48 10.7452 48 24ZM37.0502 15.7803C38.2177 15.6542 39.386 15.3405 40.554 14.8381C39.7125 16.0686 38.6952 17.1175 37.5018 17.9836C37.5144 18.1595 37.5207 18.4231 37.5207 18.7748C37.5207 20.4078 37.282 22.0369 36.805 23.6636C36.3273 25.29 35.6023 26.8502 34.6291 28.3448C33.6559 29.8393 32.497 31.1611 31.1535 32.3102C29.8095 33.4595 28.1896 34.3766 26.2929 35.0607C24.3971 35.7454 22.3688 36.0872 20.2086 36.0872C16.8051 36.0872 13.6905 35.1768 10.8647 33.3559C11.3043 33.4065 11.794 33.4311 12.3341 33.4311C15.1599 33.4311 17.6779 32.5647 19.8882 30.8318C18.5695 30.8061 17.3889 30.4015 16.3465 29.6166C15.3042 28.8312 14.5883 27.83 14.199 26.612C14.6134 26.6744 14.9965 26.7057 15.3481 26.7057C15.8881 26.7057 16.4219 26.6367 16.9495 26.4987C15.543 26.2097 14.3781 25.5099 13.455 24.3983C12.532 23.2865 12.0705 21.9963 12.0705 20.5268V20.4514C12.9243 20.9287 13.8411 21.1862 14.8209 21.224C13.9919 20.6713 13.3324 19.9493 12.8427 19.0577C12.3527 18.166 12.1078 17.1988 12.1078 16.1564C12.1078 15.0513 12.3842 14.0276 12.9368 13.0859C14.4564 14.9571 16.3057 16.4547 18.4847 17.5789C20.6638 18.7029 22.9966 19.3277 25.4833 19.4533C25.3828 18.9761 25.3326 18.5112 25.3326 18.0592C25.3326 16.3764 25.926 14.9416 27.1126 13.7548C28.2999 12.5679 29.7347 11.9746 31.4173 11.9746C33.176 11.9746 34.6577 12.6153 35.8635 13.8963C37.2323 13.6325 38.5193 13.1428 39.7256 12.4271C39.2608 13.8713 38.3689 14.9891 37.0502 15.7803Z" fill="white"/>
</svg>
