<svg width="120" height="120" viewBox="0 0 120 120" fill="none" xmlns="http://www.w3.org/2000/svg">
<path fill-rule="evenodd" clip-rule="evenodd" d="M17.6959 18.0488L105.8 100.64H17.6959V18.0488Z" fill="#2A2A2A"/>
<path fill-rule="evenodd" clip-rule="evenodd" d="M31.1508 49.8105C33.3775 49.8105 35.1825 48.0054 35.1825 45.7788C35.1825 43.5521 33.3775 41.7471 31.1508 41.7471C28.9241 41.7471 27.1191 43.5521 27.1191 45.7788C27.1191 48.0054 28.9241 49.8105 31.1508 49.8105Z" stroke="white"/>
<path fill-rule="evenodd" clip-rule="evenodd" d="M48.7114 84.911C51.1733 84.911 53.1691 82.9152 53.1691 80.4533C53.1691 77.9914 51.1733 75.9956 48.7114 75.9956C46.2495 75.9956 44.2537 77.9914 44.2537 80.4533C44.2537 82.9152 46.2495 84.911 48.7114 84.911Z" fill="#2D63FD"/>
<path d="M38.2318 68.9163C30.5375 67.9817 19.7144 78.6702 17.2747 88.9167" stroke="white" stroke-linecap="round"/>
<path d="M32.6212 72.9244C32.6212 72.9244 38.6815 66.8348 42.761 69.0886" stroke="white" stroke-linecap="round"/>
<path d="M33.5924 75.175C33.5924 75.175 43.5106 65.9072 47.7615 71.3719" stroke="white" stroke-linecap="round"/>
<path d="M36.1395 76.8638C39.7049 72.2445 49.2152 69.7422 50.9212 73.1931C51.7468 76.8638 43.6775 71.5813 39.6534 81.8104C38.9212 84.3176 42.5755 83.1879 44.3277 83.749C46.0799 84.3101 47.081 86.384 42.3183 86.4129C37.5556 86.4419 29.6301 92.6758 29.1291 101.427" stroke="white" stroke-linecap="round"/>
<rect x="66.8132" y="89.5918" width="4.88837" height="4.88836" transform="rotate(-25 66.8132 89.5918)" stroke="white"/>
<rect x="52.2111" y="62.8442" width="25.1447" height="25.1447" transform="rotate(-98 52.2111 62.8442)" stroke="white"/>
<rect x="56.6282" y="25.9189" width="4.87928" height="4.87928" transform="rotate(-24 56.6282 25.9189)" stroke="#2D63FD"/>
<rect x="102.258" y="78.2476" width="6.831" height="6.83099" transform="rotate(37 102.258 78.2476)" stroke="#2D63FD"/>
<rect x="73.3098" y="35.6782" width="25.5759" height="25.5759" transform="rotate(-19 73.3098 35.6782)" fill="#2D63FD"/>
<path fill-rule="evenodd" clip-rule="evenodd" d="M102.266 55.6398C105.278 55.6398 107.72 53.1981 107.72 50.1861C107.72 47.1741 105.278 44.7324 102.266 44.7324C99.2544 44.7324 96.8127 47.1741 96.8127 50.1861C96.8127 53.1981 99.2544 55.6398 102.266 55.6398Z" stroke="white"/>
</svg>
