<svg width="120" height="120" viewBox="0 0 120 120" fill="none" xmlns="http://www.w3.org/2000/svg">
<rect x="43.125" y="10.3125" width="48.75" height="85.3125" stroke="#2A2A2A"/>
<rect x="28.125" y="18.75" width="48.75" height="85.3125" fill="#2A2A2A"/>
<rect x="32.8125" y="22.4717" width="39.375" height="77.8694" stroke="white"/>
<path fill-rule="evenodd" clip-rule="evenodd" d="M66.0938 30C67.3882 30 68.4375 28.9507 68.4375 27.6562C68.4375 26.3618 67.3882 25.3125 66.0938 25.3125C64.7993 25.3125 63.75 26.3618 63.75 27.6562C63.75 28.9507 64.7993 30 66.0938 30Z" fill="#2D63FD"/>
<rect x="38.9375" y="63.3125" width="9.3125" height="9.3125" stroke="white"/>
<rect x="38.4375" y="40.3125" width="28.125" height="4.6875" stroke="white"/>
<rect x="38.9375" y="81.125" width="9.3125" height="9.3125" stroke="white"/>
<rect x="56.75" y="63.3125" width="9.3125" height="9.3125" stroke="white"/>
<rect x="56.25" y="80.625" width="10.3125" height="10.3125" fill="#2D63FD"/>
<rect x="82.5" y="14.0625" width="5.625" height="27.1875" fill="#2D63FD"/>
</svg>
