<!-- Generated by IcoMoon.io -->
<svg version="1.1" xmlns="http://www.w3.org/2000/svg" width="1024" height="1024" viewBox="0 0 1024 1024">
<title></title>
<g id="icomoon-ignore">
</g>
<path d="M98.282 357.716c12.953 9.143 52 36.29 117.141 81.43 65.144 45.141 115.047 79.898 149.715 104.274 3.81 2.671 11.899 8.482 24.279 17.433 12.38 8.959 22.67 16.198 30.856 21.72 8.19 5.522 18.094 11.715 29.721 18.568 11.618 6.85 22.574 12 32.857 15.412 10.291 3.437 19.812 5.141 28.574 5.141h1.151c8.759 0 18.287-1.705 28.574-5.141 10.282-3.413 21.246-8.57 32.857-15.412 11.615-6.862 21.519-13.049 29.709-18.568 8.193-5.522 18.472-12.761 30.86-21.72 12.376-8.959 20.477-14.762 24.286-17.433 35.042-24.375 124.192-86.283 267.423-185.716 27.808-19.418 51.044-42.851 69.705-70.282 18.68-27.418 28.009-56.182 28.009-86.273 0-25.146-9.051-46.672-27.15-64.575-18.094-17.907-39.526-26.856-64.282-26.856h-841.141c-29.331 0-51.904 9.903-67.713 29.71-15.808 19.81-23.712 44.573-23.712 74.284 0 23.999 10.479 50.006 31.429 78.005s43.239 50.002 66.855 65.999z"></path>
<path d="M966.847 418.854c-124.939 84.563-219.808 150.284-284.56 197.145-21.717 15.993-39.33 28.478-52.857 37.425-13.527 8.951-31.518 18.094-53.999 27.423-22.474 9.344-43.416 14.001-62.847 14.001h-1.158c-19.427 0-40.384-4.656-62.855-14.001-22.474-9.329-40.477-18.472-53.999-27.423-13.52-8.947-31.14-21.431-52.853-37.425-51.433-37.71-146.098-103.435-283.999-197.145-21.72-14.466-40.958-31.049-57.72-49.713v453.7c0 25.156 8.949 46.673 26.855 64.578 17.903 17.91 39.431 26.861 64.575 26.861h841.144c25.142 0 46.664-8.951 64.571-26.861 17.91-17.914 26.854-39.419 26.854-64.578v-453.7c-16.382 18.276-35.424 34.858-57.151 49.713z"></path>
</svg>
