<svg width="32" height="32" viewBox="0 0 32 32" fill="none" xmlns="http://www.w3.org/2000/svg">
<path fill-rule="evenodd" clip-rule="evenodd" d="M16 32C24.8366 32 32 24.8366 32 16C32 7.16344 24.8366 0 16 0C7.16344 0 0 7.16344 0 16C0 24.8366 7.16344 32 16 32ZM16.9864 10.0603C17.393 9.65372 17.9445 9.42529 18.5195 9.42529C19.0946 9.42529 19.646 9.65372 20.0527 10.0603C20.4593 10.4669 20.6877 11.0184 20.6877 11.5934C20.6877 12.1685 20.4593 12.7199 20.0527 13.1266L13.9193 19.2532C13.7629 19.4096 13.5508 19.4975 13.3295 19.4975C13.1083 19.4975 12.8962 19.4096 12.7398 19.2532C12.5833 19.0968 12.4955 18.8847 12.4955 18.6634C12.4955 18.4422 12.5833 18.2301 12.7398 18.0737L18.7533 12.0672L18.0466 11.3597L12.0327 17.3666C11.6887 17.7105 11.4955 18.177 11.4955 18.6634C11.4955 19.1499 11.6887 19.6164 12.0327 19.9603C12.3766 20.3043 12.8431 20.4975 13.3295 20.4975C13.816 20.4975 14.2825 20.3043 14.6264 19.9603L20.7598 13.8337C21.3539 13.2395 21.6877 12.4337 21.6877 11.5934C21.6877 10.7532 21.3539 9.94737 20.7598 9.35322C20.1656 8.75908 19.3598 8.42529 18.5195 8.42529C17.6793 8.42529 16.8735 8.75908 16.2793 9.35322L10.1527 15.4799C9.30832 16.3242 8.83398 17.4694 8.83398 18.6634C8.83398 19.8575 9.30832 21.0027 10.1527 21.847C10.997 22.6913 12.1421 23.1657 13.3362 23.1657C14.5303 23.1657 15.6754 22.6913 16.5198 21.847L23 15.3668L22.2929 14.6597L15.8127 21.1399C15.1559 21.7967 14.2651 22.1657 13.3362 22.1657C12.4074 22.1657 11.5166 21.7967 10.8598 21.1399C10.203 20.4831 9.83398 19.5923 9.83398 18.6634C9.83398 17.7346 10.203 16.8438 10.8598 16.187L16.9864 10.0603Z" fill="#2A2A2A"/>
</svg>
