<!-- Generated by IcoMoon.io -->
<svg version="1.1" xmlns="http://www.w3.org/2000/svg" width="1024" height="1024" viewBox="0 0 1024 1024">
<title></title>
<g id="icomoon-ignore">
</g>
<path d="M0 490.719c0.722 140.831 63.088 274.284 170.666 365.187v146.763c0 11.779 9.552 21.331 21.334 21.331 3.998 0 7.915-1.125 11.306-3.244l118.913-74.273c60.583 23.17 124.915 34.985 189.779 34.853 276.712 5.455 505.681-213.954 512.002-490.618-6.321-276.663-235.29-496.074-512.002-490.618-276.708-5.456-505.68 213.954-511.998 490.618zM821.725 343.976c9.32-5.159 20.96-2.571 27.303 6.068 6.385 8.599 5.587 20.654-1.875 28.301l-255.997 260.046c-7.883 8.007-20.507 8.499-28.97 1.125l-138.152-120.269-221.865 122.872c-8.282 4.562-18.528 3.064-25.209-3.681-8.358-8.438-8.398-22.161-0.093-30.647l255.998-260.042c7.883-8.010 20.507-8.499 28.97-1.129l138.023 120.229 221.865-122.872z"></path>
</svg>
