<svg width="48" height="48" viewBox="0 0 48 48" fill="none" xmlns="http://www.w3.org/2000/svg">
<path opacity="0.4" fill-rule="evenodd" clip-rule="evenodd" d="M48 24C48 37.2548 37.2548 48 24 48C10.7452 48 0 37.2548 0 24C0 10.7452 10.7452 0 24 0C37.2548 0 48 10.7452 48 24ZM37.0498 15.7803C38.2173 15.6542 39.3856 15.3405 40.5536 14.8381C39.7121 16.0686 38.6948 17.1175 37.5014 17.9836C37.514 18.1595 37.5203 18.4231 37.5203 18.7748C37.5203 20.4078 37.2816 22.0369 36.8045 23.6636C36.3269 25.2899 35.6019 26.8502 34.6286 28.3448C33.6554 29.8392 32.4966 31.1611 31.1531 32.3102C29.8091 33.4595 28.1892 34.3765 26.2924 35.0607C24.3966 35.7453 22.3683 36.0872 20.2082 36.0872C16.8047 36.0872 13.6901 35.1768 10.8643 33.3559C11.3039 33.4065 11.7936 33.4311 12.3337 33.4311C15.1595 33.4311 17.6775 32.5647 19.8878 30.8318C18.569 30.8061 17.3885 30.4015 16.346 29.6166C15.3038 28.8312 14.5879 27.83 14.1986 26.612C14.6129 26.6744 14.996 26.7057 15.3477 26.7057C15.8876 26.7057 16.4215 26.6366 16.949 26.4987C15.5426 26.2097 14.3776 25.5099 13.4545 24.3983C12.5316 23.2864 12.07 21.9963 12.07 20.5268V20.4514C12.9239 20.9287 13.8407 21.1862 14.8204 21.224C13.9915 20.6713 13.332 19.9492 12.8423 19.0577C12.3522 18.166 12.1074 17.1988 12.1074 16.1564C12.1074 15.0513 12.3838 14.0276 12.9364 13.0859C14.456 14.9571 16.3053 16.4547 18.4843 17.5789C20.6634 18.7029 22.9962 19.3277 25.4829 19.4532C25.3823 18.9761 25.3322 18.5112 25.3322 18.0592C25.3322 16.3763 25.9256 14.9416 27.1122 13.7548C28.2995 12.5679 29.7342 11.9746 31.4169 11.9746C33.1756 11.9746 34.6573 12.6153 35.863 13.8963C37.2318 13.6325 38.5189 13.1428 39.7251 12.4271C39.2604 13.8713 38.3685 14.9891 37.0498 15.7803Z" fill="#2A2A2A"/>
</svg>
