<svg width="48" height="48" viewBox="0 0 48 48" fill="none" xmlns="http://www.w3.org/2000/svg">
<path opacity="0.4" fill-rule="evenodd" clip-rule="evenodd" d="M48 24C48 37.2548 37.2548 48 24 48C10.7452 48 0 37.2548 0 24C0 10.7452 10.7452 0 24 0C37.2548 0 48 10.7452 48 24ZM8.73828 24.0004C8.73828 15.5963 15.5843 8.75839 23.9991 8.75839C32.4144 8.75839 39.2609 15.5963 39.2609 24.0004C39.2609 32.405 32.4144 39.242 23.9991 39.242C15.5843 39.242 8.73828 32.4046 8.73828 24.0004ZM36.889 23.8036C36.8402 20.8345 35.7822 18.1097 34.0414 15.9522C33.59 16.5362 31.4137 19.116 26.9019 20.9749C27.1907 21.57 27.4696 22.1741 27.7284 22.7828C27.817 22.9891 27.9013 23.1931 27.9856 23.3981C28.9837 23.2748 29.9792 23.2274 30.9251 23.2274C33.8566 23.2274 36.3097 23.6847 36.889 23.8036ZM23.9991 11.1444C27.251 11.1444 30.2235 12.3525 32.4939 14.3423C32.1346 14.8326 30.1854 17.2691 25.8349 18.9128C23.8211 15.2318 21.617 12.1835 21.0925 11.4759C22.0273 11.2594 23.0001 11.1444 23.9991 11.1444ZM23.1786 19.738C21.113 16.0866 18.9055 13.0058 18.461 12.3936C14.9096 14.0882 12.252 17.3568 11.3985 21.2902H11.5247C12.7127 21.2902 17.6353 21.1952 23.1786 19.738ZM11.1058 24.0205C11.1058 23.9144 11.1075 23.8083 11.111 23.7027C11.188 23.7035 11.3018 23.7035 11.4494 23.7035C13.0494 23.7035 18.6034 23.5713 24.3268 21.8729C24.6742 22.5523 25.0049 23.2419 25.3125 23.9311C25.1679 23.9726 25.0255 24.0141 24.8839 24.0603C18.4396 26.1417 14.8976 31.6516 14.3526 32.5522C12.3332 30.277 11.1058 27.29 11.1058 24.0205ZM16.1353 34.2151C18.3129 35.8943 21.042 36.8959 23.9991 36.8959C25.7643 36.8959 27.4474 36.5399 28.9798 35.8956C28.7741 34.6964 28.0241 30.8272 26.2533 26.217C26.2482 26.2183 26.2435 26.22 26.2392 26.2217C19.1771 28.6795 16.5037 33.493 16.1353 34.2151ZM31.302 34.6263C31.1292 33.6341 30.4344 30.0079 28.8309 25.5851C29.7302 25.4452 30.6051 25.39 31.4257 25.39C34.1205 25.39 36.2284 25.98 36.7183 26.1297C36.136 29.6417 34.1252 32.681 31.302 34.6263Z" fill="#2A2A2A"/>
</svg>
