<svg width="48" height="48" viewBox="0 0 48 48" fill="none" xmlns="http://www.w3.org/2000/svg">
<path opacity="0.4" fill-rule="evenodd" clip-rule="evenodd" d="M48 24C48 37.2548 37.2548 48 24 48C10.7452 48 0 37.2548 0 24C0 10.7452 10.7452 0 24 0C37.2548 0 48 10.7452 48 24ZM28.145 16.868H36.311V14.839H28.145V16.868ZM24.619 28.155C24.619 26.994 24.355 26.001 23.829 25.184C23.305 24.366 22.522 23.773 21.489 23.394C22.171 23.048 22.685 22.663 23.033 22.24C23.658 21.487 23.97 20.496 23.97 19.255C23.97 18.054 23.663 17.021 23.043 16.16C22.01 14.754 20.26 14.039 17.792 14H8V34.276H17.133C18.16 34.276 19.113 34.187 19.995 34.004C20.873 33.821 21.637 33.479 22.283 32.983C22.856 32.555 23.334 32.022 23.718 31.391C24.322 30.438 24.619 29.36 24.619 28.155ZM16.967 21.994H12.676V17.52H16.451C17.42 17.52 18.219 17.628 18.844 17.838C19.571 18.139 19.933 18.765 19.933 19.707C19.933 20.561 19.659 21.156 19.11 21.491C18.562 21.825 17.849 21.994 16.967 21.994ZM19.056 25.693C19.915 26.085 20.346 26.812 20.346 27.865C20.346 29.115 19.901 29.956 19.014 30.396C18.522 30.638 17.841 30.752 16.96 30.752H12.676V25.349H17.029C17.898 25.357 18.576 25.472 19.056 25.693ZM39.465 27.451C39.485 26.193 39.44 25.231 39.34 24.567C39.161 23.428 38.777 22.428 38.182 21.563C37.524 20.581 36.688 19.867 35.676 19.412C34.66 18.959 33.522 18.734 32.26 18.734C30.13 18.734 28.403 19.403 27.065 20.748C25.731 22.089 25.065 24.019 25.065 26.538C25.065 29.224 25.805 31.163 27.28 32.355C28.759 33.544 30.462 34.144 32.397 34.144C34.737 34.144 36.559 33.433 37.858 32.023C38.698 31.132 39.163 30.259 39.266 29.398H35.389C35.165 29.82 34.905 30.156 34.61 30.394C34.069 30.842 33.366 31.06 32.503 31.06C31.684 31.06 30.985 30.881 30.41 30.515C29.453 29.931 28.95 28.911 28.891 27.451H39.465ZM34.508 22.651C35.116 23.173 35.454 23.937 35.523 24.946H28.979C29.117 23.997 29.452 23.249 29.991 22.696C30.529 22.144 31.28 21.864 32.258 21.864C33.154 21.864 33.905 22.126 34.508 22.651Z" fill="#2A2A2A"/>
</svg>
