<svg width="48" height="48" viewBox="0 0 48 48" fill="none" xmlns="http://www.w3.org/2000/svg">
<path opacity="0.4" fill-rule="evenodd" clip-rule="evenodd" d="M48 24C48 37.2548 37.2548 48 24 48C10.7452 48 0 37.2548 0 24C0 10.7452 10.7452 0 24 0C37.2548 0 48 10.7452 48 24ZM30.0926 8.90039H16.9474C12.4834 8.90039 8.85156 12.5324 8.85156 16.9964V30.1416C8.85156 34.6058 12.4834 38.2376 16.9474 38.2376H30.0926C34.557 38.2376 38.1888 34.6057 38.1888 30.1416V16.9964C38.189 12.5324 34.557 8.90039 30.0926 8.90039ZM35.586 30.1416C35.586 33.1706 33.1217 35.6347 30.0928 35.6347H16.9474C13.9186 35.6349 11.4545 33.1706 11.4545 30.1416V16.9964C11.4545 13.9676 13.9186 11.5033 16.9474 11.5033H30.0926C33.1216 11.5033 35.5859 13.9676 35.5859 16.9964V30.1416H35.586ZM15.9609 23.5693C15.9609 19.401 19.352 16.0099 23.5204 16.0099C27.6887 16.0099 31.0799 19.401 31.0799 23.5693C31.0799 27.7375 27.6887 31.1285 23.5204 31.1285C19.352 31.1285 15.9609 27.7375 15.9609 23.5693ZM18.5639 23.5692C18.5639 26.3021 20.7875 28.5253 23.5204 28.5253C26.2533 28.5253 28.4769 26.3021 28.4769 23.5692C28.4769 20.8361 26.2535 18.6127 23.5204 18.6127C20.7873 18.6127 18.5639 20.8361 18.5639 23.5692ZM30.0488 14.3615C30.403 14.0058 30.8956 13.8028 31.3971 13.8028C31.9003 13.8028 32.3932 14.0058 32.7472 14.3615C33.1029 14.7155 33.3059 15.2084 33.3059 15.7116C33.3059 16.2131 33.1029 16.7059 32.7472 17.0616C32.3914 17.4156 31.9003 17.6204 31.3971 17.6204C30.8956 17.6204 30.4028 17.4156 30.0488 17.0616C29.693 16.7059 29.4883 16.2133 29.4883 15.7116C29.4883 15.2084 29.6929 14.7155 30.0488 14.3615Z" fill="#2A2A2A"/>
</svg>
