<svg width="356" height="138" viewBox="0 0 356 138" fill="none" xmlns="http://www.w3.org/2000/svg">
<path fill-rule="evenodd" clip-rule="evenodd" d="M240.383 58.0778C236.715 54.4089 236.715 48.4603 240.383 44.7913L278.532 6.64322C282.201 2.97426 288.149 2.97426 291.818 6.64322L329.966 44.7913C333.635 48.4603 333.635 54.4088 329.966 58.0778L291.818 96.2259C288.149 99.8949 282.201 99.8949 278.532 96.2259L240.383 58.0778ZM246.04 50.4482C245.496 50.9929 245.496 51.8762 246.04 52.421L284.188 90.5691C284.733 91.1138 285.616 91.1138 286.161 90.5691L324.309 52.421C324.854 51.8762 324.854 50.9929 324.309 50.4482L286.161 12.3001C285.616 11.7553 284.733 11.7553 284.188 12.3001L246.04 50.4482Z" fill="#5478FF"/>
<path d="M214.889 55.2494C212.782 53.1425 212.782 49.7266 214.889 47.6198L253.037 9.47165C255.144 7.36479 258.559 7.36478 260.666 9.47165L298.814 47.6198C300.921 49.7266 300.921 53.1425 298.814 55.2494L260.666 93.3975C258.559 95.5044 255.144 95.5044 253.037 93.3975L214.889 55.2494Z" fill="white"/>
<path fill-rule="evenodd" clip-rule="evenodd" d="M212.06 58.0778C208.391 54.4089 208.391 48.4603 212.06 44.7913L250.208 6.64322C253.877 2.97426 259.826 2.97426 263.495 6.64322L301.643 44.7913C305.312 48.4603 305.312 54.4088 301.643 58.0778L263.495 96.2259C259.826 99.8949 253.877 99.8949 250.208 96.2259L212.06 58.0778ZM217.717 50.4482C217.172 50.9929 217.172 51.8762 217.717 52.421L255.865 90.5691C256.41 91.1138 257.293 91.1138 257.838 90.5691L295.986 52.421C296.531 51.8762 296.531 50.9929 295.986 50.4482L257.838 12.3001C257.293 11.7553 256.41 11.7553 255.865 12.3001L217.717 50.4482Z" fill="#5478FF"/>
<rect y="39.6572" width="356" height="98" fill="#2A2A2A"/>
<path d="M64.0293 70.9372C66.1613 70.9372 67.8253 69.2732 67.8253 67.0372C67.8253 64.9052 66.1613 63.2412 64.0293 63.2412C61.7933 63.2412 60.0773 64.9052 60.0773 67.0372C60.0773 69.2732 61.7933 70.9372 64.0293 70.9372ZM66.7853 74.6292H61.0653V102.657H66.7853V74.6292ZM79.8856 63.2412H74.1656V102.657H79.8856V63.2412ZM85.6032 88.6172C85.6032 92.7772 87.0072 96.2612 89.7632 99.1212C92.5712 101.981 96.1072 103.385 100.423 103.385C104.739 103.385 108.275 101.981 111.031 99.1212C113.839 96.2612 115.243 92.7772 115.243 88.6172C115.243 84.5092 113.839 81.0772 111.031 78.2172C108.275 75.3572 104.739 73.9012 100.423 73.9012C96.1072 73.9012 92.5712 75.3572 89.7632 78.2172C87.0072 81.0772 85.6032 84.5092 85.6032 88.6172ZM109.471 88.6172C109.471 91.2172 108.587 93.4532 106.819 95.2732C105.103 97.0932 102.971 98.0292 100.423 98.0292C97.8752 98.0292 95.7432 97.0932 93.9752 95.2732C92.2592 93.4532 91.3752 91.2172 91.3752 88.6172C91.3752 86.0692 92.2592 83.8332 93.9752 82.0132C95.7432 80.1412 97.8752 79.2052 100.423 79.2052C102.971 79.2052 105.103 80.1412 106.819 82.0132C108.587 83.8332 109.471 86.0692 109.471 88.6172ZM144.965 102.605L152.089 82.7412L159.369 102.605H164.257L173.669 74.6292H167.637L161.553 94.7532L154.117 74.6292H150.061L142.833 94.7532L136.541 74.6292H130.509L140.077 102.605H144.965ZM199.144 78.5292C196.596 75.4612 193.372 73.9532 189.576 73.9532C185.572 73.9532 182.192 75.3052 179.54 78.0612C176.888 80.8172 175.588 84.2492 175.588 88.4612C175.588 92.6732 176.888 96.2092 179.54 99.0692C182.192 101.929 185.572 103.333 189.576 103.333C193.372 103.333 196.596 101.825 199.144 98.8092V102.657H204.656V74.6292H199.144V78.5292ZM190.356 98.0812C187.704 98.0812 185.52 97.1972 183.856 95.3772C182.192 93.5572 181.36 91.3212 181.36 88.6692C181.36 86.0172 182.192 83.7812 183.856 81.9612C185.52 80.1412 187.704 79.2052 190.356 79.2052C193.008 79.2052 195.14 80.1412 196.856 81.9612C198.572 83.7812 199.404 86.0172 199.404 88.6172C199.404 91.2692 198.572 93.5052 196.856 95.3252C195.14 97.1452 193.008 98.0812 190.356 98.0812ZM217.757 63.2412H212.037V102.657H217.757V63.2412ZM230.858 63.2412H225.138V102.657H230.858V63.2412ZM264.656 88.0972C264.656 83.7292 263.356 80.2972 260.808 77.7492C258.26 75.2012 254.932 73.9532 250.928 73.9532C246.716 73.9532 243.232 75.3572 240.58 78.1132C237.928 80.8692 236.628 84.3532 236.628 88.5652C236.628 95.9492 241.152 103.281 251.656 103.281C256.388 103.281 260.912 101.513 263.772 99.3812L261.38 95.1692C258.884 96.9892 255.036 98.1852 251.864 98.1852C246.456 98.1852 243.388 95.2212 242.556 90.8532H264.448C264.604 89.8132 264.656 88.8772 264.656 88.0972ZM250.928 78.8932C255.14 78.8932 258.416 81.7532 258.884 86.1732H242.556C243.388 81.8052 246.612 78.8932 250.928 78.8932ZM286.778 96.5212C285.01 97.5612 283.346 98.0812 281.838 98.0812C278.978 98.0812 277.522 96.3132 277.522 92.7252V79.5172H287.194V74.6292H277.522V64.6972H271.854V74.6292H266.966V79.5172H271.802V92.6212C271.802 99.5372 274.922 103.333 281.006 103.333C284.074 103.333 286.674 102.553 288.754 100.993L286.778 96.5212Z" fill="white"/>
</svg>
