<svg width="456" height="336" viewBox="0 0 456 336" fill="none" xmlns="http://www.w3.org/2000/svg">
<rect width="456" height="334.834" fill="#2A2A2A"/>
<path d="M342.973 224.698H275.718V176.146H373.317V224.698H361.492H361.228L361.079 224.916L354.506 234.564L343.301 224.82L343.16 224.698H342.973Z" stroke="#2D63FD"/>
<rect x="285.331" y="186.77" width="35.3943" height="5.05634" fill="#2D63FD"/>
<rect x="325.782" y="186.77" width="16.1802" height="5.05634" fill="#2D63FD"/>
<path d="M285.837 203.961H359.154" stroke="#2D63FD"/>
<path d="M286.342 213.062H329.827" stroke="#2D63FD"/>
<path d="M1.61839 269.691L144.281 188.263L232.876 333.531" stroke="#FF5B35"/>
<path d="M63.7011 179.725C63.7011 185.126 59.3226 189.504 53.9215 189.504C48.5204 189.504 44.1419 185.126 44.1419 179.725C44.1419 174.324 48.5204 169.945 53.9215 169.945C59.3226 169.945 63.7011 174.324 63.7011 179.725Z" stroke="#FF5B35"/>
<ellipse cx="58.4447" cy="175.202" rx="8.22367" ry="8.22366" fill="#FF5B35"/>
<ellipse cx="188.757" cy="260.897" rx="6.1097" ry="6.1097" fill="#FF5B35"/>
<ellipse cx="399.427" cy="312.101" rx="6.10968" ry="6.10971" fill="#FF5B35"/>
<ellipse cx="29.4637" cy="321.355" rx="3.14441" ry="3.14441" fill="#00FFD7"/>
<circle cx="399.428" cy="258.729" r="3.14441" fill="#00FFD7"/>
<ellipse cx="373.817" cy="175.14" rx="7.58449" ry="7.58448" fill="#00FFD7"/>
<path d="M349.481 334.834L418.533 257.314L455.664 287.932" stroke="#00FFD7"/>
<ellipse cx="118.803" cy="280.374" rx="34.1276" ry="34.1276" fill="#494949"/>
<mask id="mask0" mask-type="alpha" maskUnits="userSpaceOnUse" x="84" y="246" width="69" height="69">
<ellipse cx="118.803" cy="280.374" rx="34.1276" ry="34.1276" fill="#494949"/>
</mask>
<g mask="url(#mask0)">
<path d="M157.891 317.914C157.891 339.879 140.085 357.685 118.121 357.685C96.1558 357.685 78.3499 339.879 78.3499 317.914C78.3499 295.949 96.1558 278.144 118.121 278.144C140.085 278.144 157.891 295.949 157.891 317.914Z" stroke="white"/>
<path d="M110.724 260.211C110.724 264.673 114.341 268.29 118.803 268.29C123.265 268.29 126.882 264.673 126.882 260.211C126.882 255.749 123.265 252.132 118.803 252.132C114.341 252.132 110.724 255.749 110.724 260.211Z" stroke="white"/>
</g>
<circle cx="207.206" cy="304.588" r="11.8394" stroke="white"/>
<path d="M444.325 273.908C444.325 277.444 441.459 280.31 437.923 280.31C434.388 280.31 431.522 277.444 431.522 273.908C431.522 270.373 434.388 267.507 437.923 267.507C441.459 267.507 444.325 270.373 444.325 273.908Z" stroke="white"/>
<rect x="299.994" y="294.491" width="21.6531" height="21.6531" transform="rotate(9.85112 299.994 294.491)" stroke="white"/>
<rect x="0.600983" y="0.372586" width="8.53872" height="8.5387" transform="matrix(0.973568 -0.228396 0.228397 0.973568 245.404 257.113)" stroke="white"/>
<path d="M257.731 229.584L258.129 229.281L257.731 229.584ZM237.599 229.584L237.11 229.688L237.599 229.584ZM222.189 215.462C222.026 215.685 222.075 215.998 222.298 216.161C222.521 216.324 222.834 216.275 222.996 216.052L222.189 215.462ZM275.277 219.251C271.61 218.819 269.037 219.827 267.161 221.47C265.31 223.091 264.173 225.302 263.296 227.202C262.85 228.17 262.482 229.033 262.111 229.753C261.735 230.481 261.403 230.961 261.076 231.202C260.924 231.313 260.787 231.363 260.651 231.372C260.514 231.381 260.336 231.349 260.103 231.229C259.617 230.979 258.977 230.391 258.129 229.281L257.334 229.888C258.202 231.024 258.953 231.762 259.645 232.118C260 232.301 260.358 232.393 260.715 232.37C261.074 232.347 261.392 232.211 261.669 232.007C262.199 231.617 262.619 230.948 263 230.212C263.384 229.466 263.777 228.549 264.205 227.621C265.076 225.731 266.141 223.693 267.82 222.222C269.475 220.773 271.762 219.844 275.159 220.244L275.277 219.251ZM258.129 229.281C256.821 227.568 255.538 226.486 254.272 225.914C252.994 225.336 251.764 225.293 250.602 225.603C248.33 226.21 246.345 228.173 244.684 229.947C243.832 230.856 243.069 231.715 242.353 232.4C241.625 233.096 241.031 233.527 240.546 233.656C240.321 233.716 240.137 233.706 239.97 233.639C239.797 233.57 239.597 233.421 239.379 233.121C238.932 232.508 238.49 231.374 238.088 229.48L237.11 229.688C237.518 231.609 237.993 232.918 238.571 233.71C238.865 234.114 239.204 234.409 239.598 234.567C239.997 234.728 240.407 234.728 240.803 234.623C241.558 234.422 242.313 233.822 243.044 233.123C243.786 232.413 244.589 231.511 245.414 230.631C247.104 228.826 248.906 227.092 250.86 226.569C251.812 226.315 252.805 226.348 253.86 226.825C254.927 227.307 256.088 228.256 257.334 229.888L258.129 229.281ZM238.088 229.48C237.579 227.083 237.557 223.437 237.526 219.636C237.495 215.878 237.454 211.979 236.875 209.191C236.588 207.805 236.151 206.607 235.446 205.845C235.084 205.454 234.647 205.172 234.126 205.047C233.608 204.924 233.046 204.966 232.448 205.158C231.269 205.537 229.877 206.521 228.214 208.175C226.542 209.839 224.554 212.222 222.189 215.462L222.996 216.052C225.346 212.833 227.299 210.496 228.92 208.884C230.55 207.262 231.805 206.415 232.754 206.11C233.219 205.961 233.592 205.948 233.894 206.02C234.194 206.092 234.464 206.255 234.712 206.524C235.226 207.079 235.618 208.052 235.896 209.394C236.451 212.064 236.495 215.851 236.526 219.645C236.557 223.396 236.575 227.167 237.11 229.688L238.088 229.48Z" fill="white"/>
<path d="M417.811 134.161L418.186 133.831L417.811 134.161ZM429.08 127.089C429.053 126.814 428.809 126.613 428.534 126.639C428.26 126.665 428.058 126.909 428.084 127.184L429.08 127.089ZM408.939 142.195C409.327 139.56 410.25 136.078 411.718 134.057C412.449 133.05 413.246 132.498 414.102 132.472C414.964 132.445 416.071 132.945 417.436 134.492L418.186 133.831C416.741 132.193 415.371 131.432 414.071 131.472C412.766 131.512 411.719 132.353 410.909 133.469C409.293 135.694 408.343 139.378 407.95 142.05L408.939 142.195ZM417.436 134.492C419.221 136.515 420.9 137.756 422.427 138.278C423.98 138.81 425.377 138.593 426.491 137.715C427.579 136.858 428.337 135.419 428.768 133.619C429.201 131.811 429.318 129.588 429.08 127.089L428.084 127.184C428.314 129.603 428.197 131.711 427.796 133.386C427.392 135.069 426.716 136.265 425.872 136.93C425.055 137.573 424.022 137.767 422.751 137.332C421.454 136.889 419.914 135.788 418.186 133.831L417.436 134.492Z" fill="white"/>
<path d="M44.3721 242.121L44.642 242.542L44.3721 242.121ZM49.6469 254.335C49.9226 254.351 50.159 254.14 50.175 253.864C50.191 253.589 49.9804 253.352 49.7047 253.336L49.6469 254.335ZM37.7818 232.13C40.3278 232.914 43.6282 234.357 45.4024 236.115C46.2861 236.99 46.7107 237.862 46.6064 238.712C46.5014 239.568 45.8389 240.587 44.1022 241.7L44.642 242.542C46.4802 241.363 47.4406 240.125 47.599 238.834C47.758 237.538 47.0862 236.376 46.1063 235.405C44.1531 233.469 40.657 231.969 38.0762 231.174L37.7818 232.13ZM44.1022 241.7C41.8315 243.156 40.3493 244.627 39.6004 246.057C38.8392 247.511 38.8403 248.924 39.5388 250.159C40.2204 251.365 41.5271 252.333 43.2405 253.033C44.9617 253.736 47.1415 254.19 49.6469 254.335L49.7047 253.336C47.2789 253.196 45.213 252.759 43.6187 252.107C42.0166 251.453 40.9379 250.602 40.4093 249.667C39.8974 248.762 39.8632 247.711 40.4864 246.521C41.122 245.307 42.444 243.952 44.642 242.542L44.1022 241.7Z" fill="white"/>
</svg>
