<svg width="198" height="32" viewBox="0 0 198 32" fill="none" xmlns="http://www.w3.org/2000/svg">
<path d="M29.0292 1H0V30.0046H29.0292V1Z" fill="#2D63FD"/>
<path d="M12.5177 1.0224C12.5177 4.35733 11.2176 7.49273 8.85794 9.85039C6.49826 12.2081 3.36019 13.507 0.022415 13.507C0.0142641 13.507 0.00815085 13.507 0 13.507V17.5423C0.00815085 17.5423 0.0142641 17.5423 0.022415 17.5423C2.25371 17.5423 4.4198 17.1046 6.45955 16.2434C8.42798 15.4106 10.1967 14.2196 11.7148 12.7048C13.2329 11.188 14.425 9.42284 15.2564 7.45405C16.1183 5.41603 16.5564 3.25179 16.5564 1.0224C16.5564 1.01425 16.5564 1.00814 16.5564 1H12.5177C12.5177 1.00814 12.5177 1.01425 12.5177 1.0224Z" fill="white"/>
<path d="M53.5456 5.37305C55.9367 5.37305 57.7041 5.99627 58.9516 7.34661C60.1991 8.59307 60.7189 10.255 60.7189 12.1247C60.7189 13.9944 60.0952 15.5525 58.8476 16.799C57.6001 18.0454 55.7288 18.6686 53.2338 18.6686H50.115V25.6281H46.0605V5.37305H53.5456ZM53.3378 14.9292C55.417 14.9292 56.5605 13.5789 56.5605 11.917C56.5605 10.255 55.4169 9.00856 53.5456 9.00856H50.011V14.8254H53.3378V14.9292Z" fill="white"/>
<path d="M63.6299 5.37305H67.6844V25.6281H63.6299V5.37305Z" fill="white"/>
<path d="M76.1049 9.32017H70.2832V5.37305H85.9812V9.32017H80.1594V25.6281H76.001V9.32017H76.1049Z" fill="white"/>
<path d="M92.8428 22.2003L95.1298 19.3957C96.4813 21.2654 98.4566 22.2003 100.536 22.2003C102.199 22.2003 103.447 21.3693 103.447 20.019C103.447 19.188 102.823 18.4609 101.575 17.9415C101.264 17.8376 100.64 17.526 99.6002 17.1105C98.5606 16.6951 97.7289 16.2796 97.2091 15.968C95.0259 14.7215 93.9863 13.0595 93.9863 10.8782C93.9863 9.21628 94.6101 7.76207 95.8576 6.61948C97.1051 5.47689 98.8724 4.95752 100.848 4.95752C103.447 4.95752 105.734 5.89237 107.501 7.6582L105.318 10.6705C104.174 9.42401 102.407 8.80079 100.848 8.80079C99.1843 8.80079 98.2487 9.52789 98.2487 10.7744C98.2487 11.6053 98.7685 12.2286 99.9121 12.7479L101.887 13.5789C103.031 13.9944 103.863 14.4099 104.382 14.6176C106.669 15.7602 107.813 17.4222 107.813 19.7073C107.813 21.4732 107.085 23.0312 105.734 24.1738C104.382 25.3164 102.615 25.9397 100.328 25.9397C97.313 25.9397 94.5061 24.5893 92.8428 22.2003Z" fill="white"/>
<path d="M114.778 9.32017H108.957V5.37305H124.655V9.32017H118.937V25.6281H114.778V9.32017Z" fill="white"/>
<path d="M127.149 5.37305H131.204V17.9415C131.204 20.6422 132.659 21.9926 135.05 21.9926C137.337 21.9926 138.793 20.5383 138.793 17.9415V5.37305H142.951V18.2532C142.951 20.85 142.224 22.7197 140.664 24.07C139.209 25.4203 137.337 26.0436 135.05 26.0436C132.763 26.0436 130.892 25.4203 129.333 24.07C127.773 22.7197 127.045 20.85 127.045 18.2532V5.37305H127.149Z" fill="white"/>
<path d="M147.317 25.6281V5.37305H155.218C158.233 5.37305 160.624 6.30787 162.392 8.07369C164.159 9.83951 164.991 12.3325 164.991 15.5525C164.991 18.6686 164.159 21.1616 162.288 22.9274C160.52 24.6932 158.129 25.6281 155.01 25.6281H147.317ZM151.372 21.7848H155.322C157.09 21.7848 158.441 21.1616 159.377 20.019C160.312 18.8764 160.832 17.3183 160.832 15.5525C160.832 13.7867 160.312 12.3325 159.377 11.086C158.441 9.94341 157.09 9.32017 155.322 9.32017H151.372V21.7848Z" fill="white"/>
<path d="M168.421 5.37305H172.476V25.6281H168.421V5.37305Z" fill="white"/>
<path d="M178.922 22.9274C176.946 20.9538 175.907 18.4609 175.907 15.5525C175.907 12.6441 176.946 10.1511 178.922 8.07368C181.001 5.99624 183.496 4.95752 186.407 4.95752C189.422 4.95752 191.917 5.99624 193.892 8.07368C195.971 10.1511 197.011 12.6441 197.011 15.5525C197.011 18.4609 195.971 20.9538 193.892 22.9274C191.813 25.0048 189.318 25.9397 186.407 25.9397C183.392 25.9397 180.897 25.0048 178.922 22.9274ZM190.981 10.8782C189.733 9.63177 188.278 9.00855 186.511 9.00855C184.743 9.00855 183.288 9.63177 182.04 10.8782C180.793 12.1247 180.169 13.6828 180.169 15.5525C180.169 17.4222 180.793 18.8764 181.936 20.1228C183.184 21.3693 184.639 21.9925 186.511 21.9925C188.278 21.9925 189.837 21.3693 191.085 20.1228C192.332 18.8764 192.956 17.3183 192.852 15.5525C192.748 13.6828 192.125 12.1247 190.981 10.8782Z" fill="white"/>
</svg>
