<svg width="198" height="32" viewBox="0 0 198 32" fill="none" xmlns="http://www.w3.org/2000/svg">
<path d="M29.0292 1H0V30.0046H29.0292V1Z" fill="#2D63FD"/>
<path d="M12.5177 1.0224C12.5177 4.35733 11.2176 7.49273 8.85794 9.85039C6.49826 12.2081 3.36019 13.507 0.022415 13.507C0.0142641 13.507 0.00815085 13.507 0 13.507V17.5423C0.00815085 17.5423 0.0142641 17.5423 0.022415 17.5423C2.25371 17.5423 4.4198 17.1046 6.45955 16.2434C8.42798 15.4106 10.1967 14.2196 11.7148 12.7048C13.2329 11.188 14.425 9.42284 15.2564 7.45405C16.1183 5.41603 16.5564 3.25179 16.5564 1.0224C16.5564 1.01425 16.5564 1.00814 16.5564 1H12.5177C12.5177 1.00814 12.5177 1.01425 12.5177 1.0224Z" fill="white"/>
<path d="M53.5456 5.3728C55.9367 5.3728 57.7041 5.99603 58.9516 7.34636C60.1991 8.59283 60.7189 10.2548 60.7189 12.1245C60.7189 13.9942 60.0952 15.5523 58.8476 16.7987C57.6001 18.0452 55.7288 18.6684 53.2338 18.6684H50.115V25.6278H46.0605V5.3728H53.5456ZM53.3378 14.929C55.417 14.929 56.5605 13.5787 56.5605 11.9167C56.5605 10.2548 55.4169 9.00832 53.5456 9.00832H50.011V14.8251H53.3378V14.929Z" fill="#2A2A2A"/>
<path d="M63.6299 5.3728H67.6844V25.6278H63.6299V5.3728Z" fill="#2A2A2A"/>
<path d="M76.1049 9.31992H70.2832V5.3728H85.9812V9.31992H80.1594V25.6278H76.001V9.31992H76.1049Z" fill="#2A2A2A"/>
<path d="M92.8428 22.2L95.1298 19.3955C96.4813 21.2652 98.4566 22.2 100.536 22.2C102.199 22.2 103.447 21.369 103.447 20.0187C103.447 19.1877 102.823 18.4606 101.575 17.9413C101.264 17.8374 100.64 17.5258 99.6002 17.1103C98.5606 16.6948 97.7289 16.2793 97.2091 15.9677C95.0259 14.7212 93.9863 13.0593 93.9863 10.878C93.9863 9.21604 94.6101 7.76182 95.8576 6.61923C97.1051 5.47664 98.8724 4.95728 100.848 4.95728C103.447 4.95728 105.734 5.89213 107.501 7.65795L105.318 10.6702C104.174 9.42377 102.407 8.80055 100.848 8.80055C99.1843 8.80055 98.2487 9.52765 98.2487 10.7741C98.2487 11.6051 98.7685 12.2283 99.9121 12.7477L101.887 13.5787C103.031 13.9942 103.863 14.4096 104.382 14.6174C106.669 15.76 107.813 17.4219 107.813 19.7071C107.813 21.4729 107.085 23.031 105.734 24.1736C104.382 25.3162 102.615 25.9394 100.328 25.9394C97.313 25.9394 94.5061 24.5891 92.8428 22.2Z" fill="#2A2A2A"/>
<path d="M114.778 9.31992H108.957V5.3728H124.655V9.31992H118.937V25.6278H114.778V9.31992Z" fill="#2A2A2A"/>
<path d="M127.149 5.3728H131.204V17.9413C131.204 20.6419 132.659 21.9923 135.05 21.9923C137.337 21.9923 138.793 20.5381 138.793 17.9413V5.3728H142.951V18.2529C142.951 20.8497 142.224 22.7194 140.664 24.0697C139.209 25.4201 137.337 26.0433 135.05 26.0433C132.763 26.0433 130.892 25.4201 129.333 24.0697C127.773 22.7194 127.045 20.8497 127.045 18.2529V5.3728H127.149Z" fill="#2A2A2A"/>
<path d="M147.317 25.6278V5.3728H155.218C158.233 5.3728 160.624 6.30762 162.392 8.07345C164.159 9.83927 164.991 12.3322 164.991 15.5522C164.991 18.6684 164.159 21.1613 162.288 22.9272C160.52 24.693 158.129 25.6278 155.01 25.6278H147.317ZM151.372 21.7846H155.322C157.09 21.7846 158.441 21.1613 159.377 20.0187C160.312 18.8761 160.832 17.3181 160.832 15.5522C160.832 13.7864 160.312 12.3322 159.377 11.0858C158.441 9.94317 157.09 9.31992 155.322 9.31992H151.372V21.7846Z" fill="#2A2A2A"/>
<path d="M168.421 5.3728H172.476V25.6278H168.421V5.3728Z" fill="#2A2A2A"/>
<path d="M178.922 22.9271C176.946 20.9536 175.907 18.4606 175.907 15.5522C175.907 12.6438 176.946 10.1509 178.922 8.07343C181.001 5.99599 183.496 4.95728 186.407 4.95728C189.422 4.95728 191.917 5.99599 193.892 8.07343C195.971 10.1509 197.011 12.6438 197.011 15.5522C197.011 18.4606 195.971 20.9536 193.892 22.9271C191.813 25.0046 189.318 25.9394 186.407 25.9394C183.392 25.9394 180.897 25.0046 178.922 22.9271ZM190.981 10.878C189.733 9.63153 188.278 9.00831 186.511 9.00831C184.743 9.00831 183.288 9.63153 182.04 10.878C180.793 12.1245 180.169 13.6825 180.169 15.5522C180.169 17.4219 180.793 18.8761 181.936 20.1226C183.184 21.369 184.639 21.9923 186.511 21.9923C188.278 21.9923 189.837 21.369 191.085 20.1226C192.332 18.8761 192.956 17.318 192.852 15.5522C192.748 13.6825 192.125 12.1245 190.981 10.878Z" fill="#2A2A2A"/>
</svg>
