<svg width="283" height="68" viewBox="0 0 283 68" fill="none" xmlns="http://www.w3.org/2000/svg">
<rect y="2" width="64" height="64" rx="20" fill="#207EFB"/>
<path d="M30.1074 24.4892C30.1074 24.9344 30.2799 25.3616 30.5962 25.6764C30.9125 25.9912 31.338 26.1675 31.7808 26.1675C35.5935 26.1675 44.858 26.1675 48.6649 26.1675C49.1135 26.1675 49.539 25.9912 49.8553 25.6764C50.1658 25.3616 50.3441 24.9344 50.3441 24.4892C50.3441 22.7306 50.3441 19.9833 50.3441 18.2247C50.3441 17.7795 50.1658 17.3524 49.8553 17.0375C49.539 16.7227 49.1135 16.5456 48.6649 16.5456C44.858 16.5456 35.5935 16.5456 31.7808 16.5456C31.338 16.5456 30.9125 16.7227 30.5962 17.0375C30.2799 17.3524 30.1074 17.7795 30.1074 18.2247C30.1074 19.9833 30.1074 22.7306 30.1074 24.4892Z" fill="white"/>
<path fill-rule="evenodd" clip-rule="evenodd" d="M12.6124 33.7366C12.6717 33.2156 12.7282 33.1335 12.8322 32.9173C13.2035 32.1473 14.0128 31.6592 14.8868 31.6263L48.2759 31.6263C49.5131 31.6719 50.5011 32.4228 50.5568 33.9072V48.2475C50.5367 48.7711 50.4866 48.8578 50.399 49.0813C50.0651 49.9316 49.2065 50.4937 48.2759 50.5283H14.8868C13.6497 50.4818 12.6616 49.7318 12.606 48.2475L12.606 33.9072C12.6087 33.8497 12.6105 33.7932 12.6124 33.7366ZM17.1677 45.9666H45.9951V36.1881H17.1677V45.9666Z" fill="white"/>
<path d="M90.3144 11.528V47H96.8424V34.472H102.602C106.874 34.472 110.042 33.368 112.154 31.208C114.314 29.048 115.37 26.312 115.37 23.096C115.37 19.88 114.362 17.192 112.298 14.936C110.234 12.68 107.21 11.528 103.13 11.528H90.3144ZM96.8424 28.472V17.624H103.274C106.682 17.624 108.698 19.976 108.698 23C108.698 26.024 106.634 28.472 102.794 28.472H96.8424ZM125.971 10.52H119.73V47H125.971V10.52ZM135.652 17.816C137.908 17.816 139.588 16.184 139.588 13.88C139.588 11.624 137.908 9.944 135.652 9.944C133.396 9.944 131.62 11.624 131.62 13.88C131.62 16.184 133.348 17.816 135.652 17.816ZM138.724 20.936H132.436V47H138.724V20.936ZM151.189 47V32.936C151.189 28.856 153.829 25.976 157.525 25.976C160.981 25.976 163.237 28.472 163.237 32.84V47H169.525V31.112C169.525 27.608 168.517 24.968 166.549 23.096C164.581 21.224 162.133 20.264 159.301 20.264C155.509 20.264 152.485 21.944 151.093 24.584V20.936H144.949V47H151.189ZM181.752 47V32.936C181.752 28.856 184.392 25.976 188.088 25.976C191.544 25.976 193.8 28.472 193.8 32.84V47H200.088V31.112C200.088 27.608 199.08 24.968 197.112 23.096C195.144 21.224 192.696 20.264 189.864 20.264C186.072 20.264 183.048 21.944 181.656 24.584V20.936H175.512V47H181.752ZM231.13 33.416C231.13 29.384 229.93 26.216 227.482 23.864C225.082 21.512 222.01 20.312 218.218 20.312C214.234 20.312 210.97 21.608 208.426 24.2C205.93 26.744 204.682 30.008 204.682 33.944C204.682 40.856 209.002 47.576 218.794 47.576C223.114 47.576 226.906 46.376 230.122 43.976L227.626 39.512C225.082 41.288 222.202 42.2 219.034 42.2C214.57 42.2 211.882 39.8 211.066 36.2H230.938C231.082 35.048 231.13 34.136 231.13 33.416ZM218.218 25.544C221.818 25.544 224.458 27.8 224.986 31.448H211.066C211.882 27.8 214.57 25.544 218.218 25.544ZM242.221 47V34.28C242.221 28.856 244.909 26.264 248.797 26.264C249.757 26.264 250.765 26.456 251.821 26.792L252.349 20.792C251.389 20.456 250.333 20.264 249.229 20.264C246.013 20.264 243.565 21.704 241.981 24.536V20.936H235.98V47H242.221Z" fill="#207EFB"/>
</svg>
